# xmcd
#
# Track frame offsets:
#	150
#	18685
#	30947
#	45597
#	59642
#	74165
#	87462
#	100652
#	115275
#	128872
#	142992
#	162255
#	175825
#	191727
#	204865
#	220282
#	235200
#	249535
#	261632
#	280447
#	298927
#	313632
#
# Disc length: 4331 seconds
#
# Revision: 6
# Processed by: cddbd v1.5.2PL0 Copyright (c) Steve Scherf et al.
# Submitted via: audiograbber 1.83.01
#
DISCID=5a10e916
DTITLE=Various Artist - Time- Life - Contemporary Country - The Early '80s
DYEAR=1900
DGENRE=Oldies
TTITLE0=Earl Thomas Conley - Somewhere Between Right And Wrong
TTITLE1=John Anderson - Wild And Blue
TTITLE2=Rosanne Cash - Seven Year Ache
TTITLE3=Ronnie McDowell - You're Gonna Ruin My Bad Reputation
TTITLE4=Alabama - Love In The First Degree
TTITLE5=Gatlin Brothers - Houston (Means I'm One Day Closer To You)
TTITLE6=Conway Twitty - Slow Hand
TTITLE7=Ronnie Milsap - (There's) No Gettin' Over Me
TTITLE8=Ricky Skaggs - Crying My Heart Out Over You
TTITLE9=Dolly Parton - I Will Always Love You
TTITLE10=Hank Williams Jr. - A Country Boy Can Survive
TTITLE11=Merle Haggard - Big City
TTITLE12=Johnny Lee - Lookin' For Love
TTITLE13=Reba McEntire - You're The First Time I've Thought About Leaving
TTITLE14=David Frizzell and Shelly West - You're The Reason God Made Oklahoma
TTITLE15=George Jones - He Stopped Loving Her Today
TTITLE16=Eddie Rabbitt - I Love A Rainy Night
TTITLE17=Oak Ridge Boys - American Made
TTITLE18=Kenny Rogers and Dolly Parton - Islands In The Stream
TTITLE19=Don Williams - I Believe In You
TTITLE20=Anne Murray - Could I Have This Dance
TTITLE21=Willie Nelson - On The Road Again
EXTD=
EXTT0=
EXTT1=
EXTT2=
EXTT3=
EXTT4=
EXTT5=
EXTT6=
EXTT7=
EXTT8=
EXTT9=
EXTT10=
EXTT11=
EXTT12=
EXTT13=
EXTT14=
EXTT15=
EXTT16=
EXTT17=
EXTT18=
EXTT19=
EXTT20=
EXTT21=
PLAYORDER=
